<?xml version="1.0" encoding="UTF-8"?>
<svg id="Layer_1" data-name="Layer 1" xmlns="http://www.w3.org/2000/svg" viewBox="0 0 76.94 70.7">
  <defs>
    <style>
      .cls-1 {
        fill: #010101;
      }

      .cls-2 {
        fill: #3499cd;
      }
    </style>
  </defs>
  <path class="cls-2" d="M38.43,70.7C15.11,70.7,0,53.93,0,36.44v-2.19C0,16.48,15.11,0,38.43,0s38.52,16.48,38.52,34.26v2.19c0,17.43-15.11,34.26-38.52,34.26ZM64.5,34.46c0-12.74-9.26-24.07-26.07-24.07s-25.93,11.35-25.93,24.07v1.57c0,12.74,9.26,24.3,25.93,24.3s26.07-11.56,26.07-24.3v-1.57Z"/>
  <path class="cls-1" d="M39.93,24.29l-11.31,17.52c-1.43,2.22-.8,5.17,1.42,6.61h.02c2.22,1.44,5.17.81,6.61-1.41l11.31-17.52c1.43-2.22.79-5.17-1.42-6.61h-.02c-2.22-1.44-5.17-.8-6.6,1.41Z"/>
</svg>