<?xml version="1.0" encoding="UTF-8"?>
<svg id="Layer_1" data-name="Layer 1" xmlns="http://www.w3.org/2000/svg" viewBox="0 0 400 400">
  <defs>
    <style>
      .cls-1 {
        fill: #26d8a3;
      }

      .cls-2 {
        fill: #fbfdfc;
      }
    </style>
  </defs>
  <circle class="cls-1" cx="200" cy="200" r="200"/>
  <path class="cls-2" d="M308.59,107.07c27.16,24.65,27.24,66.23,13.62,98-22.97,53.6-78.22,75.69-132.77,82.36l-23.34,49.75c-1.46.91-7.75-.68-9.62-1.37-4.38-1.62-14.08-9.28-13.35-14.46,13.73-29.32,25.78-59.47,38.83-89.04.06-.14,1.21-.69,1.65-1.69,13.88-31.44,27.35-63.08,41.51-94.37,7.04-1.16,18.88,19.27,18.26,25.86l-46.09,106.17-.36,3.02c23.98-1.7,47.53-13.16,66.29-27.78,32.13-25.04,54.86-62.12,38.64-103.86-19.08-49.1-109.29-33.69-149.27-26.37-25.96,4.75-51.47,11.43-77.04,17.77,1.81,4.84,6.38,8.22,10.74,10.62,14.68,8.1,33.99,8.04,50.36,8.15l28.81-3.03c.18,4.29-6.74,5.92-10.02,6.84-12.61,3.55-27.86,5.32-40.94,5.91-.04,9.32,6.88,14,15.12,15.99,15.02,3.64,31.32,1.82,46.32-.99.12,2.01-.14,3.99-2.02,5.1-5.99,3.53-19.45,4.59-26.46,6.15,1.6,19.5,27.53,13,40.46,10.5.31,5.77-3.62,6.6-8.08,8.03-10.29,3.3-22.26,4.43-32.38.21-.22-.09-.55.09-.75,0l-.75-.75c-6.34-3.59-10.3-10-11.31-17.18-16.06-.53-33.42-10.31-34.41-27.81-11.85-.91-25.21-6.15-33.74-14.6-5.13-5.08-16.06-20.5-7.72-26.54,5.14-3.72,32.77-10.94,40.73-13.24,57.15-16.51,160.18-41.75,209.06,2.62Z"/>
</svg>