<?xml version="1.0" encoding="UTF-8"?>
<svg xmlns="http://www.w3.org/2000/svg" viewBox="0 0 400 400">
  <defs>
    <style>
      .cls-1 {
        fill: #3f5765;
      }

      .cls-2 {
        fill: #fff;
      }
    </style>
  </defs>
  <g id="Layer_2" data-name="Layer 2">
    <circle class="cls-1" cx="200" cy="200" r="200"/>
  </g>
  <g id="Layer_1" data-name="Layer 1">
    <path class="cls-2" d="M334.21,190.86l-2.28-1.32-22.8,13.2v24.84l3,1.68c4.56,2.64,10.44,1.08,13.08-3.48l12.6-21.72c2.64-4.56,1.08-10.44-3.48-13.08,0-.12-.12-.12-.12-.12Z"/>
    <path class="cls-2" d="M346.57,165.3l-12.6-21.84c-2.64-4.56-8.52-6.12-13.08-3.48l-14.76,8.52c2.04,8.4,3,17.16,3,25.8v23.64l33.96-19.56c4.56-2.64,6.12-8.52,3.48-13.08Z"/>
    <path class="cls-2" d="M256.57,206.7c29.4,5.64,42.36,14.4,47.64,19.32v-54.12l-.24-.48c-.12-.12-5.76-10.44-33.96-18.24,9.6,6.72,14.4,18.6,12,30.12-2.64,12.36-12.84,21.72-25.44,23.4Z"/>
    <path class="cls-2" d="M190.33,142.02l11.16.24c73.68,1.68,96.24,18.36,102.36,25.2-1.44-25.56-11.28-48.72-32.04-59.88,0,0-33.24-17.16-81.6-17.52l.12,51.96Z"/>
    <path class="cls-2" d="M168.13,142.5c6.24-.36,12.72-.6,19.2-.6h.6v-51.84c-48.6.24-81.96,17.52-81.96,17.52-20.28,8.64-30,32.64-31.92,57.72,6.48-6,28.68-20.16,94.08-22.8Z"/>
    <path class="cls-2" d="M190.45,203.7h-.12v47.88l31.44-4.68c2.64-.48,5.16,1.2,5.64,3.72.48,2.64-1.2,5.16-3.72,5.64-.12,0-.36,0-.48.12l-32.88,4.92v59.16c55.08-1.2,86.88-32.52,86.88-32.52,15.12-10.56,26.88-34.92,26.88-53.4v-5.04c-4.68-5.28-28.68-25.8-113.64-25.8Z"/>
    <path class="cls-2" d="M187.93,261.06l-33.24-4.56c-2.64-.12-4.68-2.4-4.44-5.04s2.4-4.68,5.04-4.44c.24,0,.48,0,.72.12l31.92,4.44v-47.88c-95.76.36-112.8,24.36-113.04,24.6l-.6.96-.6-.36v5.52c0,18.48,11.88,42.6,26.52,54,0,0,30.12,32.04,87.12,32.04h.72l-.12-59.4Z"/>
    <path class="cls-2" d="M121.21,206.7c-12.48-1.68-22.56-11.04-25.2-23.28-2.52-12,2.64-24.36,12.96-30.96-26.76,6.72-34.2,15.48-35.16,16.56s-.12,3.48-.12,5.28v51.72c2.88-3.24,13.92-13.08,47.52-19.32Z"/>
    <path class="cls-2" d="M144.49,174.66c-.12,10.92-8.52,19.92-19.44,20.88-9.84.84-18.48-6.36-19.32-16.2,0-.6-.12-1.2-.12-1.92.12-10.92,8.52-19.92,19.32-20.88,9.84-.96,18.6,6.24,19.44,16.08.12.72.12,1.32.12,2.04Z"/>
    <path class="cls-2" d="M271.45,177.42c.12,10.2-8.04,18.6-18.24,18.72h-1.56c-11.04-.72-19.68-9.84-19.8-20.88-.12-10.2,8.04-18.6,18.24-18.72h1.56c11.04.72,19.68,9.84,19.8,20.88Z"/>
  </g>
</svg>