<?xml version="1.0" encoding="UTF-8"?>
<svg id="Layer_1" data-name="Layer 1" xmlns="http://www.w3.org/2000/svg" viewBox="0 0 400 400">
  <defs>
    <style>
      .cls-1 {
        fill: #e96112;
      }

      .cls-2 {
        fill: #fff;
      }
    </style>
  </defs>
  <circle class="cls-1" cx="200" cy="200" r="200"/>
  <path class="cls-2" d="M311.8,313.57h-161.71c-20.45,0-61.89-40.6-61.89-61.76V86.43h165.71c18.59,0,57.9,23.32,57.9,61.76v165.37ZM231.94,118.31c-6.58-.49-13.35.2-19.96,0-13.21-.41-26.71-.2-39.93,0-5.32.08-10.66-.15-15.97,0-3.98.11-8.02-.25-11.98,0-2.62.16-5.44-.34-7.99,0-8.93,1.2-13.76-1.84-15.99,9.96-3.04,16.11-2.39,98.06.27,115.31,2.08,13.49,16.15,36.69,43.43,38.11h110.04c.42,0,5.99.42,5.99,0v-126.39c-7.13-23.07-29.41-35.61-47.91-36.99Z"/>
</svg>